<svg id="svg" version="1.1" xmlns="http://www.w3.org/2000/svg" xmlns:xlink="http://www.w3.org/1999/xlink" width="400" height="400" viewBox="0, 0, 400,400"><g id="svgg"><path id="path0" d="M181.200 78.200 L 181.200 93.600 184.400 93.600 L 187.600 93.600 187.600 96.800 L 187.600 100.000 200.000 100.000 L 212.400 100.000 212.400 96.800 L 212.400 93.600 215.600 93.600 L 218.800 93.600 218.800 78.200 L 218.800 62.800 200.000 62.800 L 181.200 62.800 181.200 78.200 M43.600 134.400 L 43.600 137.600 200.000 137.600 L 356.400 137.600 356.400 134.400 L 356.400 131.200 200.000 131.200 L 43.600 131.200 43.600 134.400 M75.200 250.000 L 75.200 350.000 87.600 350.000 L 100.000 350.000 100.000 346.800 L 100.000 343.600 112.383 343.600 L 124.766 343.600 124.883 340.500 L 125.000 337.400 131.100 337.290 L 137.200 337.179 137.200 334.190 L 137.200 331.200 143.600 331.200 L 150.000 331.200 150.000 328.000 L 150.000 324.800 153.000 324.800 L 156.000 324.800 156.000 321.800 L 156.000 318.800 159.200 318.800 L 162.400 318.800 162.400 315.600 L 162.400 312.400 165.600 312.400 L 168.800 312.400 168.800 309.200 L 168.800 306.000 171.800 306.000 L 174.800 306.000 174.800 299.800 L 174.800 293.600 178.000 293.600 L 181.200 293.600 181.200 287.400 L 181.200 281.200 184.200 281.200 L 187.200 281.200 187.200 250.000 L 187.200 218.800 184.200 218.800 L 181.200 218.800 181.200 212.600 L 181.200 206.400 178.000 206.400 L 174.800 206.400 174.800 200.200 L 174.800 194.000 171.800 194.000 L 168.800 194.000 168.800 190.800 L 168.800 187.600 165.600 187.600 L 162.400 187.600 162.400 184.400 L 162.400 181.200 159.200 181.200 L 156.000 181.200 156.000 178.200 L 156.000 175.200 153.000 175.200 L 150.000 175.200 150.000 172.000 L 150.000 168.800 143.600 168.800 L 137.200 168.800 137.200 165.810 L 137.200 162.821 131.100 162.710 L 125.000 162.600 124.883 159.500 L 124.766 156.400 112.383 156.400 L 100.000 156.400 100.000 153.200 L 100.000 150.000 87.600 150.000 L 75.200 150.000 75.200 250.000 M212.800 250.000 L 212.800 350.000 218.799 350.000 L 224.798 350.000 224.899 278.100 L 225.000 206.200 228.100 206.083 L 231.200 205.966 231.200 209.183 L 231.200 212.400 234.400 212.400 L 237.600 212.400 237.600 218.583 L 237.600 224.766 240.700 224.883 L 243.800 225.000 243.910 231.100 L 244.021 237.200 247.010 237.200 L 250.000 237.200 250.000 243.600 L 250.000 250.000 253.200 250.000 L 256.400 250.000 256.400 256.200 L 256.400 262.400 268.800 262.400 L 281.200 262.400 281.200 256.200 L 281.200 250.000 284.190 250.000 L 287.180 250.000 287.290 243.700 L 287.400 237.400 290.500 237.283 L 293.600 237.166 293.600 230.983 L 293.600 224.800 296.800 224.800 L 300.000 224.800 300.000 218.600 L 300.000 212.400 302.983 212.400 L 305.966 212.400 306.083 209.300 L 306.200 206.200 309.400 206.200 L 312.600 206.200 312.701 278.100 L 312.802 350.000 318.801 350.000 L 324.800 350.000 324.800 250.000 L 324.800 150.000 321.800 150.000 L 318.800 150.000 318.800 156.400 L 318.800 162.800 315.810 162.800 L 312.821 162.800 312.710 168.900 L 312.600 175.000 309.500 175.117 L 306.400 175.234 306.400 181.417 L 306.400 187.600 303.200 187.600 L 300.000 187.600 300.000 193.800 L 300.000 200.000 297.010 200.000 L 294.020 200.000 293.910 206.300 L 293.800 212.600 290.700 212.717 L 287.600 212.834 287.600 219.017 L 287.600 225.200 284.400 225.200 L 281.200 225.200 281.200 231.400 L 281.200 237.600 278.200 237.600 L 275.200 237.600 275.200 243.800 L 275.200 250.000 268.800 250.000 L 262.400 250.000 262.400 243.800 L 262.400 237.600 259.200 237.600 L 256.000 237.600 256.000 231.400 L 256.000 225.200 253.000 225.200 L 250.000 225.200 250.000 219.017 L 250.000 212.834 246.900 212.717 L 243.800 212.600 243.690 206.300 L 243.580 200.000 240.390 200.000 L 237.200 200.000 237.200 193.800 L 237.200 187.600 234.200 187.600 L 231.200 187.600 231.200 181.400 L 231.200 175.200 228.000 175.200 L 224.800 175.200 224.800 169.000 L 224.800 162.800 221.800 162.800 L 218.800 162.800 218.800 156.400 L 218.800 150.000 215.800 150.000 L 212.800 150.000 212.800 250.000 M100.000 165.600 L 100.000 168.800 112.600 168.800 L 125.200 168.800 125.200 171.800 L 125.200 174.800 131.400 174.800 L 137.600 174.800 137.600 178.000 L 137.600 181.200 140.800 181.200 L 144.000 181.200 144.000 184.200 L 144.000 187.200 147.000 187.200 L 150.000 187.200 150.000 190.400 L 150.000 193.600 153.200 193.600 L 156.400 193.600 156.400 196.800 L 156.400 200.000 159.600 200.000 L 162.800 200.000 162.800 203.000 L 162.800 206.000 165.800 206.000 L 168.800 206.000 168.800 215.400 L 168.800 224.800 172.000 224.800 L 175.200 224.800 175.200 250.000 L 175.200 275.200 172.000 275.200 L 168.800 275.200 168.800 284.600 L 168.800 294.000 165.800 294.000 L 162.800 294.000 162.800 297.000 L 162.800 300.000 159.600 300.000 L 156.400 300.000 156.400 303.200 L 156.400 306.400 153.200 306.400 L 150.000 306.400 150.000 309.600 L 150.000 312.800 147.000 312.800 L 144.000 312.800 144.000 315.800 L 144.000 318.800 140.800 318.800 L 137.600 318.800 137.600 322.000 L 137.600 325.200 131.400 325.200 L 125.200 325.200 125.200 328.200 L 125.200 331.200 112.600 331.200 L 100.000 331.200 100.000 334.400 L 100.000 337.600 93.600 337.600 L 87.200 337.600 87.200 250.000 L 87.200 162.400 93.600 162.400 L 100.000 162.400 100.000 165.600 " stroke="none" fill="#2c2424" fill-rule="evenodd"></path><path id="path1" d="M193.600 46.600 L 193.600 56.000 184.200 56.000 L 174.800 56.000 174.800 59.200 L 174.800 62.400 171.600 62.400 L 168.400 62.400 168.400 68.800 L 168.400 75.200 171.600 75.200 L 174.800 75.200 174.800 87.800 L 174.800 100.400 181.000 100.400 L 187.200 100.400 187.200 103.400 L 187.200 106.400 190.400 106.400 L 193.600 106.400 193.600 112.600 L 193.600 118.800 200.000 118.800 L 206.400 118.800 206.400 112.600 L 206.400 106.400 209.600 106.400 L 212.800 106.400 212.800 103.400 L 212.800 100.400 219.000 100.400 L 225.200 100.400 225.200 87.800 L 225.200 75.200 228.400 75.200 L 231.600 75.200 231.600 68.800 L 231.600 62.400 228.400 62.400 L 225.200 62.400 225.200 59.200 L 225.200 56.000 215.800 56.000 L 206.400 56.000 206.400 46.600 L 206.400 37.200 200.000 37.200 L 193.600 37.200 193.600 46.600 M218.800 77.983 L 218.800 93.566 215.700 93.683 L 212.600 93.800 212.483 96.900 L 212.366 100.000 200.000 100.000 L 187.634 100.000 187.517 96.900 L 187.400 93.800 184.300 93.683 L 181.200 93.566 181.200 77.983 L 181.200 62.400 200.000 62.400 L 218.800 62.400 218.800 77.983 M43.600 128.000 L 43.600 131.200 200.000 131.200 L 356.400 131.200 356.400 128.000 L 356.400 124.800 200.000 124.800 L 43.600 124.800 43.600 128.000 M68.400 250.000 L 68.400 356.400 84.400 356.400 L 100.400 356.400 100.400 353.400 L 100.400 350.400 112.800 350.400 L 125.200 350.400 125.200 347.200 L 125.200 344.000 131.400 344.000 L 137.600 344.000 137.600 340.800 L 137.600 337.600 144.000 337.600 L 150.400 337.600 150.400 334.600 L 150.400 331.600 153.400 331.600 L 156.400 331.600 156.400 328.400 L 156.400 325.200 159.600 325.200 L 162.800 325.200 162.800 322.000 L 162.800 318.800 165.800 318.800 L 168.800 318.800 168.800 315.800 L 168.800 312.800 172.000 312.800 L 175.200 312.800 175.200 309.600 L 175.200 306.400 178.400 306.400 L 181.600 306.400 181.600 300.200 L 181.600 294.000 184.600 294.000 L 187.600 294.000 187.600 287.800 L 187.600 281.600 190.800 281.600 L 194.000 281.600 194.000 250.000 L 194.000 218.400 190.800 218.400 L 187.600 218.400 187.600 212.200 L 187.600 206.000 184.600 206.000 L 181.600 206.000 181.600 199.800 L 181.600 193.600 178.400 193.600 L 175.200 193.600 175.200 190.400 L 175.200 187.200 172.000 187.200 L 168.800 187.200 168.800 184.200 L 168.800 181.200 165.800 181.200 L 162.800 181.200 162.800 178.000 L 162.800 174.800 159.600 174.800 L 156.400 174.800 156.400 171.600 L 156.400 168.400 153.400 168.400 L 150.400 168.400 150.400 165.400 L 150.400 162.400 144.000 162.400 L 137.600 162.400 137.600 159.200 L 137.600 156.000 131.400 156.000 L 125.200 156.000 125.200 152.800 L 125.200 149.600 112.800 149.600 L 100.400 149.600 100.400 146.600 L 100.400 143.600 84.400 143.600 L 68.400 143.600 68.400 250.000 M206.000 250.000 L 206.000 356.400 218.800 356.400 L 231.600 356.400 231.600 290.800 L 231.600 225.200 234.400 225.200 L 237.200 225.200 237.200 231.400 L 237.200 237.600 240.400 237.600 L 243.600 237.600 243.600 244.000 L 243.600 250.400 246.600 250.400 L 249.600 250.400 249.600 256.600 L 249.600 262.800 252.800 262.800 L 256.000 262.800 256.000 265.800 L 256.000 268.800 268.800 268.800 L 281.600 268.800 281.600 265.800 L 281.600 262.800 284.600 262.800 L 287.600 262.800 287.600 256.600 L 287.600 250.400 290.800 250.400 L 294.000 250.400 294.000 244.000 L 294.000 237.600 297.200 237.600 L 300.400 237.600 300.400 231.400 L 300.400 225.200 303.200 225.200 L 306.000 225.200 306.000 290.800 L 306.000 356.400 318.800 356.400 L 331.600 356.400 331.600 250.000 L 331.600 143.600 325.000 143.600 L 318.400 143.600 318.400 146.600 L 318.400 149.600 315.400 149.600 L 312.400 149.600 312.400 156.000 L 312.400 162.400 309.200 162.400 L 306.000 162.400 306.000 168.600 L 306.000 174.800 302.800 174.800 L 299.600 174.800 299.600 181.000 L 299.600 187.200 296.600 187.200 L 293.600 187.200 293.600 193.400 L 293.600 199.600 290.400 199.600 L 287.200 199.600 287.200 206.000 L 287.200 212.400 284.200 212.400 L 281.200 212.400 281.200 218.600 L 281.200 224.800 278.000 224.800 L 274.800 224.800 274.800 231.000 L 274.800 237.200 268.800 237.200 L 262.800 237.200 262.800 231.000 L 262.800 224.800 259.600 224.800 L 256.400 224.800 256.400 218.600 L 256.400 212.400 253.410 212.400 L 250.420 212.400 250.310 206.100 L 250.200 199.800 247.100 199.683 L 244.000 199.566 244.000 193.383 L 244.000 187.200 240.800 187.200 L 237.600 187.200 237.600 181.000 L 237.600 174.800 234.600 174.800 L 231.600 174.800 231.600 168.600 L 231.600 162.400 228.400 162.400 L 225.200 162.400 225.200 156.000 L 225.200 149.600 222.000 149.600 L 218.800 149.600 218.800 146.600 L 218.800 143.600 212.400 143.600 L 206.000 143.600 206.000 250.000 M100.000 153.200 L 100.000 156.400 112.600 156.400 L 125.200 156.400 125.200 159.400 L 125.200 162.400 131.400 162.400 L 137.600 162.400 137.600 165.600 L 137.600 168.800 143.800 168.800 L 150.000 168.800 150.000 171.783 L 150.000 174.766 153.100 174.883 L 156.200 175.000 156.317 178.100 L 156.434 181.200 159.417 181.200 L 162.400 181.200 162.400 184.400 L 162.400 187.600 165.600 187.600 L 168.800 187.600 168.800 190.583 L 168.800 193.566 171.900 193.683 L 175.000 193.800 175.110 200.100 L 175.220 206.400 178.210 206.400 L 181.200 206.400 181.200 212.600 L 181.200 218.800 184.400 218.800 L 187.600 218.800 187.600 250.000 L 187.600 281.200 184.400 281.200 L 181.200 281.200 181.200 287.400 L 181.200 293.600 178.210 293.600 L 175.220 293.600 175.110 299.900 L 175.000 306.200 171.900 306.317 L 168.800 306.434 168.800 309.417 L 168.800 312.400 165.600 312.400 L 162.400 312.400 162.400 315.600 L 162.400 318.800 159.417 318.800 L 156.434 318.800 156.317 321.900 L 156.200 325.000 153.100 325.117 L 150.000 325.234 150.000 328.217 L 150.000 331.200 143.800 331.200 L 137.600 331.200 137.600 334.400 L 137.600 337.600 131.400 337.600 L 125.200 337.600 125.200 340.600 L 125.200 343.600 112.600 343.600 L 100.000 343.600 100.000 346.800 L 100.000 350.000 87.400 350.000 L 74.800 350.000 74.800 250.000 L 74.800 150.000 87.400 150.000 L 100.000 150.000 100.000 153.200 M218.800 156.183 L 218.800 162.366 221.900 162.483 L 225.000 162.600 225.110 168.700 L 225.221 174.800 228.210 174.800 L 231.200 174.800 231.200 181.200 L 231.200 187.600 234.400 187.600 L 237.600 187.600 237.600 193.800 L 237.600 200.000 240.600 200.000 L 243.600 200.000 243.600 206.200 L 243.600 212.400 246.800 212.400 L 250.000 212.400 250.000 218.583 L 250.000 224.766 253.100 224.883 L 256.200 225.000 256.310 231.300 L 256.420 237.600 259.410 237.600 L 262.400 237.600 262.400 243.800 L 262.400 250.000 268.600 250.000 L 274.800 250.000 274.800 243.800 L 274.800 237.600 277.990 237.600 L 281.180 237.600 281.290 231.300 L 281.400 225.000 284.500 224.883 L 287.600 224.766 287.600 218.583 L 287.600 212.400 290.600 212.400 L 293.600 212.400 293.600 206.200 L 293.600 200.000 296.800 200.000 L 300.000 200.000 300.000 193.817 L 300.000 187.634 303.100 187.517 L 306.200 187.400 306.310 181.100 L 306.420 174.800 309.410 174.800 L 312.400 174.800 312.400 168.600 L 312.400 162.400 315.600 162.400 L 318.800 162.400 318.800 156.200 L 318.800 150.000 322.000 150.000 L 325.200 150.000 325.200 250.000 L 325.200 350.000 318.800 350.000 L 312.400 350.000 312.400 278.200 L 312.400 206.400 309.400 206.400 L 306.400 206.400 306.400 209.400 L 306.400 212.400 303.200 212.400 L 300.000 212.400 300.000 218.800 L 300.000 225.200 296.800 225.200 L 293.600 225.200 293.600 231.400 L 293.600 237.600 290.600 237.600 L 287.600 237.600 287.600 243.800 L 287.600 250.000 284.400 250.000 L 281.200 250.000 281.200 256.200 L 281.200 262.400 268.800 262.400 L 256.400 262.400 256.400 256.200 L 256.400 250.000 253.200 250.000 L 250.000 250.000 250.000 243.800 L 250.000 237.600 246.800 237.600 L 243.600 237.600 243.600 231.400 L 243.600 225.200 240.600 225.200 L 237.600 225.200 237.600 218.800 L 237.600 212.400 234.400 212.400 L 231.200 212.400 231.200 209.400 L 231.200 206.400 228.200 206.400 L 225.200 206.400 225.200 278.200 L 225.200 350.000 218.800 350.000 L 212.400 350.000 212.400 250.000 L 212.400 150.000 215.600 150.000 L 218.800 150.000 218.800 156.183 M87.600 250.000 L 87.600 337.600 93.800 337.600 L 100.000 337.600 100.000 334.400 L 100.000 331.200 112.383 331.200 L 124.766 331.200 124.883 328.100 L 125.000 325.000 131.300 324.890 L 137.600 324.780 137.600 321.790 L 137.600 318.800 140.600 318.800 L 143.600 318.800 143.600 315.600 L 143.600 312.400 146.800 312.400 L 150.000 312.400 150.000 309.417 L 150.000 306.434 153.100 306.317 L 156.200 306.200 156.317 303.100 L 156.434 300.000 159.417 300.000 L 162.400 300.000 162.400 296.800 L 162.400 293.600 165.600 293.600 L 168.800 293.600 168.800 284.200 L 168.800 274.800 171.800 274.800 L 174.800 274.800 174.800 250.000 L 174.800 225.200 171.800 225.200 L 168.800 225.200 168.800 215.800 L 168.800 206.400 165.600 206.400 L 162.400 206.400 162.400 203.200 L 162.400 200.000 159.417 200.000 L 156.434 200.000 156.317 196.900 L 156.200 193.800 153.100 193.683 L 150.000 193.566 150.000 190.583 L 150.000 187.600 146.800 187.600 L 143.600 187.600 143.600 184.400 L 143.600 181.200 140.600 181.200 L 137.600 181.200 137.600 178.210 L 137.600 175.220 131.300 175.110 L 125.000 175.000 124.883 171.900 L 124.766 168.800 112.383 168.800 L 100.000 168.800 100.000 165.600 L 100.000 162.400 93.800 162.400 L 87.600 162.400 87.600 250.000 M99.600 172.000 L 99.600 175.200 112.200 175.200 L 124.800 175.200 124.800 178.400 L 124.800 181.600 131.000 181.600 L 137.200 181.600 137.200 184.600 L 137.200 187.600 140.400 187.600 L 143.600 187.600 143.600 190.800 L 143.600 194.000 146.583 194.000 L 149.566 194.000 149.683 197.100 L 149.800 200.200 152.900 200.317 L 156.000 200.434 156.000 203.417 L 156.000 206.400 159.200 206.400 L 162.400 206.400 162.400 215.800 L 162.400 225.200 165.400 225.200 L 168.400 225.200 168.400 250.000 L 168.400 274.800 165.400 274.800 L 162.400 274.800 162.400 284.200 L 162.400 293.600 159.200 293.600 L 156.000 293.600 156.000 296.583 L 156.000 299.566 152.900 299.683 L 149.800 299.800 149.683 302.900 L 149.566 306.000 146.583 306.000 L 143.600 306.000 143.600 309.200 L 143.600 312.400 140.400 312.400 L 137.200 312.400 137.200 315.400 L 137.200 318.400 131.000 318.400 L 124.800 318.400 124.800 321.600 L 124.800 324.800 112.200 324.800 L 99.600 324.800 99.600 328.000 L 99.600 331.200 96.800 331.200 L 94.000 331.200 94.000 250.000 L 94.000 168.800 96.800 168.800 L 99.600 168.800 99.600 172.000 " stroke="none" fill="#040404" fill-rule="evenodd"></path><path id="path2" d="M190.500 62.700 C 195.725 62.763,204.275 62.763,209.500 62.700 C 214.725 62.636,210.450 62.585,200.000 62.585 C 189.550 62.585,185.275 62.636,190.500 62.700 M74.997 250.000 C 74.997 305.110,75.043 327.655,75.100 300.100 C 75.157 272.545,75.157 227.455,75.100 199.900 C 75.043 172.345,74.997 194.890,74.997 250.000 M212.597 250.000 C 212.597 305.110,212.643 327.655,212.700 300.100 C 212.757 272.545,212.757 227.455,212.700 199.900 C 212.643 172.345,212.597 194.890,212.597 250.000 M324.997 250.000 C 324.997 305.110,325.043 327.655,325.100 300.100 C 325.157 272.545,325.157 227.455,325.100 199.900 C 325.043 172.345,324.997 194.890,324.997 250.000 M124.973 159.499 L 125.000 162.600 131.083 162.710 L 137.167 162.821 137.303 165.910 L 137.439 169.000 137.520 165.700 L 137.600 162.400 131.417 162.400 L 125.234 162.400 125.090 159.399 L 124.946 156.397 124.973 159.499 M87.396 250.000 C 87.396 298.290,87.443 318.045,87.500 293.900 C 87.557 269.755,87.557 230.245,87.500 206.100 C 87.443 181.955,87.396 201.710,87.396 250.000 M221.799 162.690 L 224.800 162.834 224.800 169.017 L 224.800 175.200 228.100 175.120 L 231.400 175.039 228.310 174.903 L 225.221 174.767 225.110 168.683 L 225.000 162.600 221.899 162.573 L 218.797 162.546 221.799 162.690 M312.400 168.583 L 312.400 174.766 309.300 174.912 L 306.200 175.058 309.400 175.029 L 312.600 175.000 312.710 168.917 L 312.821 162.833 315.910 162.697 L 319.000 162.561 315.700 162.480 L 312.400 162.400 312.400 168.583 M124.973 171.899 L 125.000 175.000 131.200 175.015 L 137.400 175.030 131.317 174.905 L 125.233 174.780 125.090 171.789 L 124.946 168.797 124.973 171.899 M152.982 175.090 L 155.967 175.233 156.110 178.218 L 156.254 181.203 156.227 178.101 L 156.200 175.000 153.099 174.973 L 149.997 174.946 152.982 175.090 M143.680 184.300 L 143.600 187.600 146.900 187.520 L 150.200 187.439 147.117 187.303 L 144.033 187.167 143.897 184.083 L 143.761 181.000 143.680 184.300 M237.362 193.800 C 237.362 197.320,237.424 198.706,237.498 196.881 C 237.572 195.056,237.572 192.176,237.497 190.481 C 237.422 188.786,237.361 190.280,237.362 193.800 M171.789 193.890 L 174.780 194.033 174.905 200.117 L 175.030 206.200 175.015 200.000 L 175.000 193.800 171.899 193.773 L 168.797 193.746 171.789 193.890 M162.480 203.100 L 162.400 206.400 165.700 206.320 L 169.000 206.239 165.917 206.103 L 162.833 205.967 162.697 202.883 L 162.561 199.800 162.480 203.100 M293.688 206.083 L 293.600 212.366 290.500 212.503 L 287.400 212.639 290.513 212.720 C 294.297 212.817,294.054 213.314,293.900 205.782 L 293.777 199.800 293.688 206.083 M224.985 206.500 C 224.880 206.775,224.841 239.220,224.898 278.600 L 225.002 350.200 225.101 278.317 L 225.200 206.434 228.300 206.297 L 231.400 206.161 228.287 206.080 C 226.103 206.024,225.118 206.149,224.985 206.500 M306.174 206.523 C 306.057 206.829,306.024 208.322,306.102 209.840 L 306.243 212.600 306.322 209.500 L 306.400 206.400 309.399 206.400 L 312.398 206.400 312.501 278.200 L 312.603 350.000 312.602 278.100 L 312.600 206.200 309.494 206.083 C 307.128 205.994,306.337 206.099,306.174 206.523 M245.511 212.693 C 246.451 212.778,247.891 212.777,248.711 212.691 C 249.530 212.605,248.760 212.536,247.000 212.537 C 245.240 212.539,244.570 212.609,245.511 212.693 M187.390 250.000 C 187.390 267.270,187.440 274.335,187.500 265.700 C 187.560 257.065,187.560 242.935,187.500 234.300 C 187.440 225.665,187.390 232.730,187.390 250.000 M171.700 225.097 L 174.800 225.234 174.800 250.000 L 174.800 274.766 171.700 274.903 L 168.600 275.039 171.900 275.120 L 175.200 275.200 175.200 250.000 L 175.200 224.800 171.900 224.880 L 168.600 224.961 171.700 225.097 M240.599 225.090 L 243.600 225.234 243.600 231.417 L 243.600 237.600 246.900 237.520 L 250.200 237.439 247.110 237.303 L 244.021 237.167 243.910 231.083 L 243.800 225.000 240.699 224.973 L 237.597 224.946 240.599 225.090 M252.989 225.090 L 255.980 225.233 256.105 231.317 L 256.230 237.400 256.215 231.200 L 256.200 225.000 253.099 224.973 L 249.997 224.946 252.989 225.090 M283.111 225.093 C 284.051 225.178,285.491 225.177,286.311 225.091 C 287.130 225.005,286.360 224.936,284.600 224.937 C 282.840 224.939,282.170 225.009,283.111 225.093 M295.100 225.093 C 296.035 225.177,297.565 225.177,298.500 225.093 C 299.435 225.009,298.670 224.940,296.800 224.940 C 294.930 224.940,294.165 225.009,295.100 225.093 M287.376 237.718 C 287.267 238.002,287.233 240.927,287.300 244.218 L 287.423 250.200 287.512 243.917 L 287.600 237.634 290.700 237.497 L 293.800 237.361 290.687 237.280 C 288.450 237.223,287.519 237.345,287.376 237.718 M274.962 243.800 C 274.962 247.320,275.024 248.706,275.098 246.881 C 275.172 245.056,275.172 242.176,275.097 240.481 C 275.022 238.786,274.961 240.280,274.962 243.800 M162.480 296.900 L 162.561 300.200 162.697 297.117 L 162.833 294.033 165.917 293.897 L 169.000 293.761 165.700 293.680 L 162.400 293.600 162.480 296.900 M174.888 299.683 L 174.800 305.966 171.700 306.103 L 168.600 306.239 171.713 306.320 C 175.497 306.417,175.254 306.914,175.100 299.382 L 174.977 293.400 174.888 299.683 M143.680 315.700 L 143.761 319.000 143.897 315.917 L 144.033 312.833 147.117 312.697 L 150.200 312.561 146.900 312.480 L 143.600 312.400 143.680 315.700 M156.078 321.683 L 156.000 324.766 152.900 324.903 L 149.800 325.039 152.913 325.120 C 156.546 325.213,156.498 325.267,156.298 321.360 L 156.157 318.600 156.078 321.683 M124.968 325.340 C 124.854 325.637,124.824 327.122,124.902 328.640 L 125.043 331.400 125.122 328.310 L 125.200 325.220 131.500 325.099 L 137.800 324.978 131.487 324.889 C 126.496 324.819,125.132 324.913,124.968 325.340 M137.200 334.190 L 137.200 337.179 131.100 337.290 L 125.000 337.400 124.975 340.400 L 124.950 343.400 125.092 340.500 L 125.234 337.600 131.417 337.600 L 137.600 337.600 137.600 334.400 C 137.600 332.640,137.510 331.200,137.400 331.200 C 137.290 331.200,137.200 332.545,137.200 334.190 " stroke="none" fill="#202814" fill-rule="evenodd"></path><path id="path3" d="M190.500 62.700 C 195.725 62.763,204.275 62.763,209.500 62.700 C 214.725 62.636,210.450 62.585,200.000 62.585 C 189.550 62.585,185.275 62.636,190.500 62.700 M74.997 250.000 C 74.997 305.110,75.043 327.655,75.100 300.100 C 75.157 272.545,75.157 227.455,75.100 199.900 C 75.043 172.345,74.997 194.890,74.997 250.000 M212.597 250.000 C 212.597 305.110,212.643 327.655,212.700 300.100 C 212.757 272.545,212.757 227.455,212.700 199.900 C 212.643 172.345,212.597 194.890,212.597 250.000 M324.997 250.000 C 324.997 305.110,325.043 327.655,325.100 300.100 C 325.157 272.545,325.157 227.455,325.100 199.900 C 325.043 172.345,324.997 194.890,324.997 250.000 M124.973 159.499 L 125.000 162.600 131.083 162.710 L 137.167 162.821 137.303 165.910 L 137.439 169.000 137.520 165.700 L 137.600 162.400 131.417 162.400 L 125.234 162.400 125.090 159.399 L 124.946 156.397 124.973 159.499 M87.396 250.000 C 87.396 298.290,87.443 318.045,87.500 293.900 C 87.557 269.755,87.557 230.245,87.500 206.100 C 87.443 181.955,87.396 201.710,87.396 250.000 M221.799 162.690 L 224.800 162.834 224.800 169.017 L 224.800 175.200 228.100 175.120 L 231.400 175.039 228.310 174.903 L 225.221 174.767 225.110 168.683 L 225.000 162.600 221.899 162.573 L 218.797 162.546 221.799 162.690 M312.400 168.583 L 312.400 174.766 309.300 174.912 L 306.200 175.058 309.400 175.029 L 312.600 175.000 312.710 168.917 L 312.821 162.833 315.910 162.697 L 319.000 162.561 315.700 162.480 L 312.400 162.400 312.400 168.583 M124.973 171.899 L 125.000 175.000 131.200 175.015 L 137.400 175.030 131.317 174.905 L 125.233 174.780 125.090 171.789 L 124.946 168.797 124.973 171.899 M152.982 175.090 L 155.967 175.233 156.110 178.218 L 156.254 181.203 156.227 178.101 L 156.200 175.000 153.099 174.973 L 149.997 174.946 152.982 175.090 M143.680 184.300 L 143.600 187.600 146.900 187.520 L 150.200 187.439 147.117 187.303 L 144.033 187.167 143.897 184.083 L 143.761 181.000 143.680 184.300 M237.362 193.800 C 237.362 197.320,237.424 198.706,237.498 196.881 C 237.572 195.056,237.572 192.176,237.497 190.481 C 237.422 188.786,237.361 190.280,237.362 193.800 M171.789 193.890 L 174.780 194.033 174.905 200.117 L 175.030 206.200 175.015 200.000 L 175.000 193.800 171.899 193.773 L 168.797 193.746 171.789 193.890 M162.480 203.100 L 162.400 206.400 165.700 206.320 L 169.000 206.239 165.917 206.103 L 162.833 205.967 162.697 202.883 L 162.561 199.800 162.480 203.100 M293.688 206.083 L 293.600 212.366 290.500 212.503 L 287.400 212.639 290.513 212.720 C 294.297 212.817,294.054 213.314,293.900 205.782 L 293.777 199.800 293.688 206.083 M224.985 206.500 C 224.880 206.775,224.841 239.220,224.898 278.600 L 225.002 350.200 225.101 278.317 L 225.200 206.434 228.300 206.297 L 231.400 206.161 228.287 206.080 C 226.103 206.024,225.118 206.149,224.985 206.500 M306.174 206.523 C 306.057 206.829,306.024 208.322,306.102 209.840 L 306.243 212.600 306.322 209.500 L 306.400 206.400 309.399 206.400 L 312.398 206.400 312.501 278.200 L 312.603 350.000 312.602 278.100 L 312.600 206.200 309.494 206.083 C 307.128 205.994,306.337 206.099,306.174 206.523 M245.511 212.693 C 246.451 212.778,247.891 212.777,248.711 212.691 C 249.530 212.605,248.760 212.536,247.000 212.537 C 245.240 212.539,244.570 212.609,245.511 212.693 M187.390 250.000 C 187.390 267.270,187.440 274.335,187.500 265.700 C 187.560 257.065,187.560 242.935,187.500 234.300 C 187.440 225.665,187.390 232.730,187.390 250.000 M171.700 225.097 L 174.800 225.234 174.800 250.000 L 174.800 274.766 171.700 274.903 L 168.600 275.039 171.900 275.120 L 175.200 275.200 175.200 250.000 L 175.200 224.800 171.900 224.880 L 168.600 224.961 171.700 225.097 M240.599 225.090 L 243.600 225.234 243.600 231.417 L 243.600 237.600 246.900 237.520 L 250.200 237.439 247.110 237.303 L 244.021 237.167 243.910 231.083 L 243.800 225.000 240.699 224.973 L 237.597 224.946 240.599 225.090 M252.989 225.090 L 255.980 225.233 256.105 231.317 L 256.230 237.400 256.215 231.200 L 256.200 225.000 253.099 224.973 L 249.997 224.946 252.989 225.090 M283.111 225.093 C 284.051 225.178,285.491 225.177,286.311 225.091 C 287.130 225.005,286.360 224.936,284.600 224.937 C 282.840 224.939,282.170 225.009,283.111 225.093 M295.100 225.093 C 296.035 225.177,297.565 225.177,298.500 225.093 C 299.435 225.009,298.670 224.940,296.800 224.940 C 294.930 224.940,294.165 225.009,295.100 225.093 M287.376 237.718 C 287.267 238.002,287.233 240.927,287.300 244.218 L 287.423 250.200 287.512 243.917 L 287.600 237.634 290.700 237.497 L 293.800 237.361 290.687 237.280 C 288.450 237.223,287.519 237.345,287.376 237.718 M274.962 243.800 C 274.962 247.320,275.024 248.706,275.098 246.881 C 275.172 245.056,275.172 242.176,275.097 240.481 C 275.022 238.786,274.961 240.280,274.962 243.800 M162.480 296.900 L 162.561 300.200 162.697 297.117 L 162.833 294.033 165.917 293.897 L 169.000 293.761 165.700 293.680 L 162.400 293.600 162.480 296.900 M174.888 299.683 L 174.800 305.966 171.700 306.103 L 168.600 306.239 171.713 306.320 C 175.497 306.417,175.254 306.914,175.100 299.382 L 174.977 293.400 174.888 299.683 M143.680 315.700 L 143.761 319.000 143.897 315.917 L 144.033 312.833 147.117 312.697 L 150.200 312.561 146.900 312.480 L 143.600 312.400 143.680 315.700 M156.078 321.683 L 156.000 324.766 152.900 324.903 L 149.800 325.039 152.913 325.120 C 156.546 325.213,156.498 325.267,156.298 321.360 L 156.157 318.600 156.078 321.683 M124.968 325.340 C 124.854 325.637,124.824 327.122,124.902 328.640 L 125.043 331.400 125.122 328.310 L 125.200 325.220 131.500 325.099 L 137.800 324.978 131.487 324.889 C 126.496 324.819,125.132 324.913,124.968 325.340 M137.200 334.190 L 137.200 337.179 131.100 337.290 L 125.000 337.400 124.975 340.400 L 124.950 343.400 125.092 340.500 L 125.234 337.600 131.417 337.600 L 137.600 337.600 137.600 334.400 C 137.600 332.640,137.510 331.200,137.400 331.200 C 137.290 331.200,137.200 332.545,137.200 334.190 " stroke="none" fill="#202814" fill-rule="evenodd"></path><path id="path4" d="M190.500 62.700 C 195.725 62.763,204.275 62.763,209.500 62.700 C 214.725 62.636,210.450 62.585,200.000 62.585 C 189.550 62.585,185.275 62.636,190.500 62.700 M74.997 250.000 C 74.997 305.110,75.043 327.655,75.100 300.100 C 75.157 272.545,75.157 227.455,75.100 199.900 C 75.043 172.345,74.997 194.890,74.997 250.000 M212.597 250.000 C 212.597 305.110,212.643 327.655,212.700 300.100 C 212.757 272.545,212.757 227.455,212.700 199.900 C 212.643 172.345,212.597 194.890,212.597 250.000 M324.997 250.000 C 324.997 305.110,325.043 327.655,325.100 300.100 C 325.157 272.545,325.157 227.455,325.100 199.900 C 325.043 172.345,324.997 194.890,324.997 250.000 M124.973 159.499 L 125.000 162.600 131.083 162.710 L 137.167 162.821 137.303 165.910 L 137.439 169.000 137.520 165.700 L 137.600 162.400 131.417 162.400 L 125.234 162.400 125.090 159.399 L 124.946 156.397 124.973 159.499 M87.396 250.000 C 87.396 298.290,87.443 318.045,87.500 293.900 C 87.557 269.755,87.557 230.245,87.500 206.100 C 87.443 181.955,87.396 201.710,87.396 250.000 M221.799 162.690 L 224.800 162.834 224.800 169.017 L 224.800 175.200 228.100 175.120 L 231.400 175.039 228.310 174.903 L 225.221 174.767 225.110 168.683 L 225.000 162.600 221.899 162.573 L 218.797 162.546 221.799 162.690 M312.400 168.583 L 312.400 174.766 309.300 174.912 L 306.200 175.058 309.400 175.029 L 312.600 175.000 312.710 168.917 L 312.821 162.833 315.910 162.697 L 319.000 162.561 315.700 162.480 L 312.400 162.400 312.400 168.583 M124.973 171.899 L 125.000 175.000 131.200 175.015 L 137.400 175.030 131.317 174.905 L 125.233 174.780 125.090 171.789 L 124.946 168.797 124.973 171.899 M152.982 175.090 L 155.967 175.233 156.110 178.218 L 156.254 181.203 156.227 178.101 L 156.200 175.000 153.099 174.973 L 149.997 174.946 152.982 175.090 M143.680 184.300 L 143.600 187.600 146.900 187.520 L 150.200 187.439 147.117 187.303 L 144.033 187.167 143.897 184.083 L 143.761 181.000 143.680 184.300 M237.362 193.800 C 237.362 197.320,237.424 198.706,237.498 196.881 C 237.572 195.056,237.572 192.176,237.497 190.481 C 237.422 188.786,237.361 190.280,237.362 193.800 M171.789 193.890 L 174.780 194.033 174.905 200.117 L 175.030 206.200 175.015 200.000 L 175.000 193.800 171.899 193.773 L 168.797 193.746 171.789 193.890 M162.480 203.100 L 162.400 206.400 165.700 206.320 L 169.000 206.239 165.917 206.103 L 162.833 205.967 162.697 202.883 L 162.561 199.800 162.480 203.100 M293.688 206.083 L 293.600 212.366 290.500 212.503 L 287.400 212.639 290.513 212.720 C 294.297 212.817,294.054 213.314,293.900 205.782 L 293.777 199.800 293.688 206.083 M224.985 206.500 C 224.880 206.775,224.841 239.220,224.898 278.600 L 225.002 350.200 225.101 278.317 L 225.200 206.434 228.300 206.297 L 231.400 206.161 228.287 206.080 C 226.103 206.024,225.118 206.149,224.985 206.500 M306.174 206.523 C 306.057 206.829,306.024 208.322,306.102 209.840 L 306.243 212.600 306.322 209.500 L 306.400 206.400 309.399 206.400 L 312.398 206.400 312.501 278.200 L 312.603 350.000 312.602 278.100 L 312.600 206.200 309.494 206.083 C 307.128 205.994,306.337 206.099,306.174 206.523 M245.511 212.693 C 246.451 212.778,247.891 212.777,248.711 212.691 C 249.530 212.605,248.760 212.536,247.000 212.537 C 245.240 212.539,244.570 212.609,245.511 212.693 M187.390 250.000 C 187.390 267.270,187.440 274.335,187.500 265.700 C 187.560 257.065,187.560 242.935,187.500 234.300 C 187.440 225.665,187.390 232.730,187.390 250.000 M171.700 225.097 L 174.800 225.234 174.800 250.000 L 174.800 274.766 171.700 274.903 L 168.600 275.039 171.900 275.120 L 175.200 275.200 175.200 250.000 L 175.200 224.800 171.900 224.880 L 168.600 224.961 171.700 225.097 M240.599 225.090 L 243.600 225.234 243.600 231.417 L 243.600 237.600 246.900 237.520 L 250.200 237.439 247.110 237.303 L 244.021 237.167 243.910 231.083 L 243.800 225.000 240.699 224.973 L 237.597 224.946 240.599 225.090 M252.989 225.090 L 255.980 225.233 256.105 231.317 L 256.230 237.400 256.215 231.200 L 256.200 225.000 253.099 224.973 L 249.997 224.946 252.989 225.090 M283.111 225.093 C 284.051 225.178,285.491 225.177,286.311 225.091 C 287.130 225.005,286.360 224.936,284.600 224.937 C 282.840 224.939,282.170 225.009,283.111 225.093 M295.100 225.093 C 296.035 225.177,297.565 225.177,298.500 225.093 C 299.435 225.009,298.670 224.940,296.800 224.940 C 294.930 224.940,294.165 225.009,295.100 225.093 M287.376 237.718 C 287.267 238.002,287.233 240.927,287.300 244.218 L 287.423 250.200 287.512 243.917 L 287.600 237.634 290.700 237.497 L 293.800 237.361 290.687 237.280 C 288.450 237.223,287.519 237.345,287.376 237.718 M274.962 243.800 C 274.962 247.320,275.024 248.706,275.098 246.881 C 275.172 245.056,275.172 242.176,275.097 240.481 C 275.022 238.786,274.961 240.280,274.962 243.800 M162.480 296.900 L 162.561 300.200 162.697 297.117 L 162.833 294.033 165.917 293.897 L 169.000 293.761 165.700 293.680 L 162.400 293.600 162.480 296.900 M174.888 299.683 L 174.800 305.966 171.700 306.103 L 168.600 306.239 171.713 306.320 C 175.497 306.417,175.254 306.914,175.100 299.382 L 174.977 293.400 174.888 299.683 M143.680 315.700 L 143.761 319.000 143.897 315.917 L 144.033 312.833 147.117 312.697 L 150.200 312.561 146.900 312.480 L 143.600 312.400 143.680 315.700 M156.078 321.683 L 156.000 324.766 152.900 324.903 L 149.800 325.039 152.913 325.120 C 156.546 325.213,156.498 325.267,156.298 321.360 L 156.157 318.600 156.078 321.683 M124.968 325.340 C 124.854 325.637,124.824 327.122,124.902 328.640 L 125.043 331.400 125.122 328.310 L 125.200 325.220 131.500 325.099 L 137.800 324.978 131.487 324.889 C 126.496 324.819,125.132 324.913,124.968 325.340 M137.200 334.190 L 137.200 337.179 131.100 337.290 L 125.000 337.400 124.975 340.400 L 124.950 343.400 125.092 340.500 L 125.234 337.600 131.417 337.600 L 137.600 337.600 137.600 334.400 C 137.600 332.640,137.510 331.200,137.400 331.200 C 137.290 331.200,137.200 332.545,137.200 334.190 " stroke="none" fill="#202814" fill-rule="evenodd"></path></g></svg>